<?xml version="1.0" encoding="UTF-8"?>
<svg id="c" data-name="Pattern" xmlns="http://www.w3.org/2000/svg" xmlns:xlink="http://www.w3.org/1999/xlink" viewBox="0 0 1920 1080">
  <defs>
    <pattern id="d" data-name="New Pattern" x="0" y="0" width="320.51" height="554.78" patternTransform="translate(-379.55 3529.4) scale(1.34 1.33)" patternUnits="userSpaceOnUse" viewBox="0 0 320.51 554.78">
      <g>
        <rect x="0" width="320.51" height="554.78" style="fill: none;"/>
        <g>
          <g>
            <path d="M163.53,552.62c2-3.54,3.52-6.68,5.5-10.22,1.3-2.33,2.55-4.69,3.82-7.03,1.48-2.73,2.97-5.46,4.46-8.19,1.3-2.39,2.59-4.77,3.89-7.16,1.46-2.69,2.92-5.37,4.39-8.06,1.31-2.41,2.62-4.82,3.93-7.22,1.47-2.71,2.95-5.42,4.42-8.13.2-.36.32-.77.53-1.13.46-.8,1.09-.83,1.57-.06,1.42,2.26,2.81,4.54,4.21,6.81,2.17,3.52,4.34,7.04,6.5,10.57,2.5,4.07,4.98,8.14,7.48,12.21.46.75.93,1.5,1.38,2.25.63,1.04.55,1.55-.47,2.22-4.43,2.93-8.88,5.83-13.32,8.75-3.33,2.2-6.65,4.42-9.98,6.62-6.11,4.03-12.22,8.06-18.33,12.09-3.15,2.08-6.29,4.16-9.43,6.24-.84.56-1.51.43-2.04-.45-.52-.86-1.01-1.73-1.51-2.61-.44-.77-.29-1.52.1-2.24.87-1.58,1.78-3.15,2.67-4.73-.09-.05.32-.49.24-.54Z" style="fill: #3248b2;"/>
            <path d="M237.74,561.47c-1.01-.14-1.99-.33-2.98-.4-4.86-.32-9.73-.59-14.59-.9-4.74-.3-9.48-.61-14.22-.93-.38-.03-.75-.24-1.13-.37.25-.33.43-.76.76-.98,4.79-3.18,9.61-6.33,14.41-9.5,3.37-2.22,6.73-4.47,10.1-6.7,6.07-4.01,12.14-8.01,18.21-12.01,3.41-2.25,6.83-4.5,10.24-6.75.22-.15.45-.3.68-.43.96-.53,1.36-.31,1.33.81-.04,1.59-.15,3.18-.23,4.77-.24,4.74-.49,9.49-.74,14.23-.66,12.4-1.31,24.79-1.98,37.19-.13,2.49-.29,4.99-.44,7.48,0,.1.01.21-.02.29-.13.32-.28.63-.43.94-.29-.18-.66-.31-.85-.56-.63-.81-1.21-1.66-1.78-2.52-2.22-3.29-4.43-6.58-6.66-9.87-2.69-3.97-5.38-7.95-8.1-11.9-.45-.66-1.03-1.23-1.6-1.9Z" style="fill: #fff;"/>
            <path d="M278.71,551.83c-.53-.38-.63-.87-.61-1.41.62-11.78,1.24-23.57,1.86-35.35.35-6.67.7-13.35,1.05-20.02.02-.29-.01-.6.08-.87.09-.28.3-.51.46-.77.24.15.55.24.7.45.64.89,1.25,1.81,1.85,2.73,1.99,3.05,3.98,6.11,5.96,9.16,1.79,2.75,3.56,5.5,5.35,8.24,1.75,2.68,3.52,5.35,5.27,8.04,1.4,2.15,2.8,4.31,4.19,6.46,1.48,2.28,2.96,4.55,4.44,6.83,1.81,2.79,3.62,5.58,5.44,8.36,1.57,2.42,3.15,4.84,4.72,7.25.08.12.18.24.24.37.45.91.25,1.31-.77,1.31-2.13.01-4.26-.04-6.38-.07-4.96-.08-9.93-.16-14.89-.25-4.3-.08-8.6-.19-12.91-.28-1.59-.03-3.18-.03-4.77-.06-.43,0-.86-.09-1.29-.13Z" style="fill: #3248b2;"/>
            <path d="M226.33,521.22c-.12-.15-.34-.38-.5-.64-3.15-5.19-6.29-10.38-9.44-15.57-2.17-3.58-4.36-7.14-6.54-10.72-1.37-2.26-2.73-4.52-4.1-6.79-.09-.15-.17-.3-.24-.45-.46-.93-.21-1.34.81-1.34.32,0,.64.03.95.04,21.91,1.12,43.83,2.25,65.74,3.38.49.03.99.03,1.46.15.61.15.69.54.19.92-.68.52-1.4.98-2.12,1.46-3.66,2.41-7.32,4.82-10.98,7.23-6.03,3.98-12.06,7.95-18.09,11.93-5.15,3.4-10.3,6.8-15.45,10.2-.48.32-.97.59-1.69.21Z" style="fill: #3248b2;"/>
          </g>
          <path d="M358.51,468.26c-.18.06-.47.19-.78.25-5.96,1.16-11.92,2.3-17.87,3.46-4.11.8-8.21,1.62-12.32,2.42-2.59.51-5.19.99-7.79,1.49-.17.03-.34.05-.51.07-1.03.11-1.33-.27-.98-1.23.11-.3.24-.59.37-.88,8.65-20.16,17.31-40.33,25.96-60.49.19-.45.37-.91.64-1.31.35-.52.75-.45.93.14.25.82.44,1.66.63,2.49,1,4.27,1.99,8.54,2.98,12.81,1.64,7.03,3.28,14.07,4.92,21.1,1.4,6.01,2.81,12.02,4.21,18.02.13.56.22,1.12-.39,1.66Z" style="fill: #3248b2;"/>
        </g>
        <g>
          <path d="M45.68,538.05c-2.62-3.1-5.04-5.61-7.68-8.7-1.73-2.03-3.51-4.02-5.27-6.02-2.05-2.34-4.09-4.68-6.14-7.02-1.79-2.04-3.58-4.09-5.37-6.13-2.01-2.3-4.03-4.61-6.04-6.91-1.8-2.06-3.61-4.12-5.41-6.19-2.03-2.32-4.06-4.64-6.09-6.96-.27-.31-.61-.57-.87-.89-.59-.71-.4-1.31.49-1.5,2.61-.55,5.23-1.06,7.84-1.59,4.06-.81,8.11-1.63,12.17-2.43,4.68-.93,9.36-1.85,14.05-2.78.86-.17,1.73-.35,2.59-.52,1.2-.23,1.64.03,1.92,1.21,1.21,5.17,2.39,10.35,3.59,15.53.9,3.89,1.84,7.77,2.74,11.65,1.67,7.13,3.32,14.26,4.98,21.39.86,3.67,1.72,7.34,2.59,11.01.23.98-.12,1.56-1.13,1.76-.98.19-1.98.34-2.97.51-.87.14-1.53-.25-2.07-.87-1.18-1.37-2.34-2.76-3.51-4.14-.08.07-.35-.47-.42-.41Z" style="fill: #3248b2;"/>
          <path d="M111.41,399.1c2.95,3.71,5.91,7.42,8.86,11.14,1.69,2.13,3.36,4.27,5.04,6.4,2.85,3.61,5.7,7.21,8.55,10.82,1.71,2.17,3.42,4.34,5.13,6.51,2.8,3.55,5.61,7.1,8.41,10.65,1.71,2.17,3.42,4.34,5.13,6.51.82,1.04,1.63,2.08,2.44,3.12.58.74.8,1.54.46,2.47-.29.78-.5,1.59-.81,2.36-.36.89-.79,1.06-1.68.72-.53-.2-1.03-.45-1.55-.67-10.55-4.53-21.11-9.06-31.65-13.6-7.38-3.17-14.75-6.37-22.12-9.55-.27-.12-.54-.23-.8-.36-.84-.44-1.05-.84-.75-1.73.66-1.94,1.38-3.87,2.08-5.8,2.48-6.78,4.96-13.56,7.45-20.33,1.13-3.08,2.27-6.15,3.42-9.22.4-1.07.91-1.15,1.68-.29.25.27.48.56.71.84,0,0-.01.01-.02.02Z" style="fill: #3248b2;"/>
          <path d="M79.72,471.52c-.48.9-1,1.75-1.41,2.66-1.98,4.45-3.93,8.92-5.9,13.37-1.92,4.34-3.85,8.68-5.81,13.01-.16.35-.49.62-.74.93-.23-.35-.57-.67-.66-1.05-1.32-5.6-2.6-11.21-3.91-16.81-.92-3.93-1.86-7.86-2.78-11.8-1.65-7.08-3.3-14.16-4.95-21.24-.93-3.98-1.85-7.96-2.77-11.95-.06-.26-.13-.52-.17-.79-.16-1.08.18-1.38,1.22-.97,1.48.59,2.93,1.24,4.39,1.87,4.36,1.87,8.73,3.75,13.09,5.63,11.4,4.91,22.8,9.83,34.2,14.75,2.29.99,4.57,2,6.86,3.01.09.04.2.06.27.12.25.23.49.48.74.73-.27.21-.52.51-.82.61-.98.31-1.98.56-2.98.8-3.85.95-7.71,1.87-11.56,2.82-4.66,1.15-9.32,2.29-13.97,3.47-.77.2-1.51.54-2.34.84Z" style="fill: #fff;"/>
          <path d="M84.88,429.75c-.54.37-1.04.29-1.53.08-10.84-4.67-21.68-9.34-32.51-14-6.14-2.64-12.28-5.29-18.41-7.93-.27-.12-.57-.2-.79-.38-.23-.18-.38-.46-.56-.69.22-.17.42-.43.66-.5,1.06-.29,2.13-.54,3.2-.79,3.55-.81,7.11-1.61,10.66-2.41,3.2-.72,6.39-1.43,9.59-2.16,3.12-.71,6.24-1.44,9.36-2.16,2.5-.57,5.01-1.13,7.52-1.69,2.65-.6,5.3-1.2,7.94-1.79,3.24-.73,6.49-1.47,9.73-2.2,2.81-.64,5.63-1.28,8.44-1.92.14-.03.28-.08.43-.1,1.01-.11,1.31.22.96,1.18-.73,2-1.51,3.98-2.28,5.96-1.8,4.63-3.59,9.25-5.4,13.88-1.57,4.01-3.16,8-4.73,12.01-.58,1.48-1.13,2.97-1.71,4.45-.16.4-.38.78-.57,1.17Z" style="fill: #3248b2;"/>
          <path d="M38.01,468.26c-.18.06-.47.19-.78.25-5.96,1.16-11.92,2.3-17.87,3.46-4.11.8-8.21,1.62-12.32,2.42-2.59.51-5.19.99-7.79,1.49-.17.03-.34.05-.51.07-1.03.11-1.33-.27-.98-1.23.11-.3.24-.59.37-.88,8.65-20.16,17.31-40.33,25.96-60.49.19-.45.37-.91.64-1.31.35-.52.75-.45.93.14.25.82.44,1.66.63,2.49,1,4.27,1.99,8.54,2.98,12.81,1.64,7.03,3.28,14.07,4.92,21.1,1.4,6.01,2.81,12.02,4.21,18.02.13.56.22,1.12-.39,1.66Z" style="fill: #3248b2;"/>
          <path d="M106.76,512.38c4.85,5.74,9.71,11.48,14.56,17.22.16.19.32.37.47.57.76,1,.55,1.52-.7,1.73-1.79.3-3.57.58-5.36.88-4.9.82-9.8,1.65-14.69,2.46-4.85.81-9.7,1.59-14.55,2.41-4.75.8-9.5,1.61-14.26,2.41-.43.07-.87.14-1.31.16-.77.04-1.05-.33-.79-1.05.19-.53.45-1.03.68-1.54,1.92-4.35,3.83-8.69,5.75-13.04,3.06-6.92,6.13-13.83,9.19-20.75,1.28-2.89,2.57-5.77,3.85-8.66.73-1.65,1.18-1.72,2.37-.31,4.94,5.83,9.86,11.67,14.8,17.5Z" style="fill: #3248b2;"/>
          <path d="M116.83,504.22c-4.8-5.68-9.61-11.37-14.41-17.05-.27-.32-.53-.64-.74-1-.4-.68-.24-1.08.53-1.33.35-.11.71-.16,1.07-.25,9.49-2.32,18.97-4.64,28.46-6.98,5.4-1.33,10.78-2.68,16.18-4.02.24-.06.48-.09.73-.1.55-.02.86.25.75.81-.11.57-.28,1.14-.47,1.69-2.63,7.74-5.28,15.47-7.91,23.2-1.99,5.84-3.96,11.67-5.94,17.51-.5,1.48-.97,2.98-1.5,4.45-.55,1.55-1.05,1.61-2.13.33-4.87-5.76-9.74-11.52-14.6-17.27Z" style="fill: #3248b2;"/>
        </g>
        <g>
          <g>
            <path d="M317.3,373.73c-1.96,3.56-3.45,6.71-5.39,10.28-1.28,2.34-2.5,4.71-3.75,7.07-1.46,2.75-2.91,5.49-4.37,8.24-1.27,2.4-2.54,4.8-3.82,7.2-1.43,2.7-2.87,5.4-4.3,8.11-1.28,2.42-2.57,4.84-3.85,7.27-1.44,2.72-2.89,5.45-4.33,8.17-.19.37-.31.77-.52,1.13-.46.8-1.08.84-1.57.08-1.44-2.24-2.86-4.51-4.28-6.76-2.21-3.5-4.41-7-6.61-10.5-2.54-4.04-5.07-8.09-7.6-12.13-.47-.75-.94-1.49-1.41-2.24-.64-1.04-.56-1.54.45-2.23,4.4-2.97,8.82-5.92,13.23-8.89,3.31-2.23,6.6-4.49,9.91-6.72,6.07-4.1,12.14-8.19,18.21-12.28,3.12-2.11,6.24-4.23,9.36-6.34.84-.57,1.5-.44,2.04.43.53.85,1.03,1.72,1.53,2.59.45.76.31,1.52-.08,2.24-.86,1.59-1.74,3.17-2.62,4.76.09.05-.32.49-.23.54Z" style="fill: #3248b2;"/>
            <path d="M164.05,361.88c2.42-4.08,4.83-8.17,7.25-12.25,1.39-2.33,2.79-4.66,4.18-6.99,2.36-3.95,4.71-7.9,7.06-11.85,1.42-2.37,2.84-4.74,4.25-7.12,2.32-3.89,4.63-7.77,6.95-11.66,1.42-2.37,2.83-4.74,4.25-7.12.68-1.13,1.37-2.26,2.05-3.39.49-.81,1.15-1.3,2.14-1.31.83,0,1.66-.1,2.49-.08.96.02,1.27.36,1.27,1.31,0,.56-.05,1.12-.07,1.69-.47,11.47-.93,22.95-1.41,34.42-.34,8.02-.69,16.05-1.04,24.07-.01.29-.02.59-.05.88-.11.94-.41,1.28-1.35,1.32-2.05.07-4.11.09-6.16.12-7.22.1-14.44.2-21.66.29-3.28.04-6.56.07-9.84.09-1.14,0-1.4-.44-.87-1.47.17-.33.35-.64.53-.97,0,0,.02,0,.02.01Z" style="fill: #3248b2;"/>
            <path d="M243,365.66c1.01.13,1.99.31,2.99.37,4.86.27,9.73.49,14.6.75,4.74.25,9.48.51,14.23.78.38.02.75.24,1.13.36-.25.33-.42.77-.75.99-4.76,3.23-9.54,6.43-14.31,9.65-3.35,2.26-6.68,4.54-10.03,6.8-6.03,4.07-12.05,8.13-18.08,12.2-3.39,2.29-6.78,4.57-10.17,6.85-.22.15-.44.31-.68.44-.95.54-1.35.32-1.34-.79.02-1.59.12-3.18.18-4.77.2-4.75.39-9.49.59-14.24.53-12.4,1.05-24.81,1.59-37.21.11-2.49.24-4.99.36-7.48,0-.1-.02-.21.02-.29.13-.32.28-.63.42-.95.29.18.66.3.86.55.64.81,1.22,1.65,1.81,2.5,2.26,3.26,4.5,6.53,6.76,9.8,2.73,3.95,5.47,7.89,8.22,11.82.46.65,1.04,1.22,1.62,1.89Z" style="fill: #fff;"/>
            <path d="M202.14,375.74c.53.37.64.87.62,1.4-.49,11.79-.99,23.58-1.49,35.37-.28,6.68-.56,13.35-.84,20.03-.01.29.02.6-.07.87-.09.28-.29.52-.45.77-.24-.14-.55-.24-.7-.44-.65-.89-1.27-1.8-1.88-2.71-2.02-3.03-4.04-6.07-6.06-9.1-1.81-2.73-3.62-5.46-5.44-8.19-1.78-2.66-3.57-5.32-5.35-7.98-1.43-2.14-2.84-4.28-4.26-6.42-1.5-2.26-3.01-4.52-4.51-6.78-1.84-2.77-3.68-5.54-5.53-8.31-1.6-2.4-3.2-4.8-4.8-7.2-.08-.12-.18-.24-.24-.37-.46-.9-.26-1.3.75-1.32,2.13-.04,4.26,0,6.38,0,4.96.03,9.93.06,14.89.1,4.3.04,8.61.1,12.91.14,1.59.02,3.18,0,4.77,0,.43,0,.86.08,1.29.12Z" style="fill: #3248b2;"/>
            <path d="M254.84,405.79c.12.15.35.37.51.64,3.2,5.15,6.4,10.31,9.6,15.47,2.21,3.55,4.44,7.09,6.65,10.65,1.4,2.24,2.78,4.5,4.17,6.74.09.15.17.3.25.45.47.92.23,1.34-.8,1.35-.32,0-.64-.02-.95-.03-21.92-.89-43.85-1.79-65.77-2.69-.49-.02-.99-.02-1.46-.13-.61-.14-.69-.54-.2-.92.68-.52,1.39-1,2.1-1.48,3.63-2.45,7.27-4.9,10.9-7.35,5.99-4.04,11.98-8.08,17.96-12.12,5.11-3.45,10.22-6.91,15.34-10.36.47-.32.97-.6,1.69-.22Z" style="fill: #3248b2;"/>
            <path d="M271.53,325.83c3.63-6.58,7.27-13.16,10.9-19.74.12-.21.23-.43.36-.64.66-1.06,1.23-1.05,1.87.04.91,1.56,1.81,3.13,2.73,4.69,2.51,4.28,5.03,8.56,7.54,12.85,2.48,4.24,4.95,8.5,7.44,12.74,2.44,4.16,4.89,8.3,7.34,12.46.22.38.44.76.62,1.17.31.71.07,1.1-.7,1.11-.56,0-1.12-.06-1.68-.09-4.74-.24-9.49-.47-14.23-.72-7.55-.39-15.11-.79-22.66-1.19-3.15-.17-6.31-.34-9.46-.51-1.81-.09-2.03-.48-1.14-2.1,3.69-6.69,7.38-13.38,11.07-20.06Z" style="fill: #3248b2;"/>
            <path d="M260.32,319.32c-3.6,6.51-7.19,13.03-10.79,19.54-.2.36-.41.73-.67,1.05-.5.62-.93.61-1.43-.02-.23-.28-.41-.61-.62-.91-5.55-8.03-11.1-16.07-16.67-24.1-3.16-4.57-6.35-9.12-9.52-13.68-.14-.2-.26-.42-.35-.64-.21-.51-.07-.89.49-.99.58-.1,1.16-.14,1.75-.16,8.17-.3,16.33-.59,24.5-.89,6.16-.23,12.32-.46,18.48-.69,1.56-.06,3.13-.15,4.69-.19,1.64-.04,1.88.4,1.07,1.87-3.64,6.6-7.29,13.2-10.93,19.8Z" style="fill: #3248b2;"/>
          </g>
          <g>
            <path d="M3.27,275.23c2-3.54,3.52-6.68,5.5-10.22,1.3-2.33,2.55-4.69,3.82-7.03,1.48-2.73,2.97-5.46,4.46-8.19,1.3-2.39,2.59-4.77,3.89-7.16,1.46-2.69,2.92-5.37,4.39-8.06,1.31-2.41,2.62-4.82,3.93-7.22,1.47-2.71,2.95-5.42,4.42-8.13.2-.36.32-.77.53-1.13.46-.8,1.09-.83,1.57-.06,1.42,2.26,2.81,4.54,4.21,6.81,2.17,3.52,4.34,7.04,6.5,10.57,2.5,4.07,4.98,8.14,7.48,12.21.46.75.93,1.5,1.38,2.25.63,1.04.55,1.55-.47,2.22-4.43,2.93-8.88,5.83-13.32,8.75-3.33,2.2-6.65,4.42-9.98,6.62-6.11,4.03-12.22,8.06-18.33,12.09-3.15,2.08-6.29,4.16-9.43,6.24-.84.56-1.51.43-2.04-.45-.52-.86-1.01-1.73-1.51-2.61-.44-.77-.29-1.52.1-2.24.87-1.58,1.78-3.15,2.67-4.73-.09-.05.32-.49.24-.54Z" style="fill: #3248b2;"/>
            <path d="M156.4,288.69c-2.46,4.06-4.91,8.12-7.38,12.17-1.41,2.32-2.84,4.63-4.25,6.95-2.4,3.92-4.79,7.85-7.18,11.78-1.44,2.36-2.89,4.71-4.33,7.07-2.36,3.86-4.71,7.72-7.07,11.59-1.44,2.36-2.88,4.71-4.33,7.07-.69,1.13-1.39,2.25-2.08,3.37-.5.81-1.17,1.29-2.16,1.28-.83,0-1.66.08-2.49.06-.96-.03-1.26-.37-1.26-1.32,0-.56.06-1.12.09-1.69.59-11.47,1.17-22.94,1.77-34.4.42-8.02.86-16.04,1.29-24.06.02-.29.02-.59.06-.88.12-.94.42-1.28,1.36-1.3,2.05-.05,4.11-.05,6.17-.06,7.22-.02,14.44-.04,21.66-.06,3.28,0,6.56,0,9.84.01,1.14,0,1.4.45.86,1.47-.17.32-.36.64-.54.96,0,0-.02,0-.02-.01Z" style="fill: #3248b2;"/>
            <path d="M77.48,284.08c-1.01-.14-1.99-.33-2.98-.4-4.86-.32-9.73-.59-14.59-.9-4.74-.3-9.48-.61-14.22-.93-.38-.03-.75-.24-1.13-.37.25-.33.43-.76.76-.98,4.79-3.18,9.61-6.33,14.41-9.5,3.37-2.22,6.73-4.47,10.1-6.7,6.07-4.01,12.14-8.01,18.21-12.01,3.41-2.25,6.83-4.5,10.24-6.75.22-.15.45-.3.68-.43.96-.53,1.36-.31,1.33.81-.04,1.59-.15,3.18-.23,4.77-.24,4.74-.49,9.49-.74,14.23-.66,12.4-1.31,24.79-1.98,37.19-.13,2.49-.29,4.99-.44,7.48,0,.1.01.21-.02.29-.13.32-.28.63-.43.94-.29-.18-.66-.31-.85-.56-.63-.81-1.21-1.66-1.78-2.52-2.22-3.29-4.43-6.58-6.66-9.87-2.69-3.97-5.38-7.95-8.1-11.9-.45-.66-1.03-1.23-1.6-1.9Z" style="fill: #fff;"/>
            <path d="M118.45,274.44c-.53-.38-.63-.87-.61-1.41.62-11.78,1.24-23.57,1.86-35.35.35-6.67.7-13.35,1.05-20.02.02-.29-.01-.6.08-.87.09-.28.3-.51.46-.77.24.15.55.24.7.45.64.89,1.25,1.81,1.85,2.73,1.99,3.05,3.98,6.11,5.96,9.16,1.79,2.75,3.56,5.5,5.35,8.24,1.75,2.68,3.52,5.35,5.27,8.04,1.4,2.15,2.8,4.31,4.19,6.46,1.48,2.28,2.96,4.55,4.44,6.83,1.81,2.79,3.62,5.58,5.44,8.36,1.57,2.42,3.15,4.84,4.72,7.25.08.12.18.24.24.37.45.91.25,1.31-.77,1.31-2.13.01-4.26-.04-6.38-.07-4.96-.08-9.93-.16-14.89-.25-4.3-.08-8.6-.19-12.91-.28-1.59-.03-3.18-.03-4.77-.06-.43,0-.86-.09-1.29-.13Z" style="fill: #3248b2;"/>
            <path d="M66.07,243.83c-.12-.15-.34-.38-.5-.64-3.15-5.19-6.29-10.38-9.44-15.57-2.17-3.58-4.36-7.14-6.54-10.72-1.37-2.26-2.73-4.52-4.1-6.79-.09-.15-.17-.3-.24-.45-.46-.93-.21-1.34.81-1.34.32,0,.64.03.95.04,21.91,1.12,43.83,2.25,65.74,3.38.49.03.99.03,1.46.15.61.15.69.54.19.92-.68.52-1.4.98-2.12,1.46-3.66,2.41-7.32,4.82-10.98,7.23-6.03,3.98-12.06,7.95-18.09,11.93-5.15,3.4-10.3,6.8-15.45,10.2-.48.32-.97.59-1.69.21Z" style="fill: #3248b2;"/>
            <path d="M48.54,323.61c-3.7,6.54-7.4,13.08-11.11,19.63-.12.21-.24.43-.37.64-.68,1.06-1.24,1.04-1.87-.06-.9-1.57-1.78-3.15-2.68-4.72-2.47-4.31-4.94-8.62-7.41-12.93-2.44-4.27-4.86-8.55-7.3-12.82-2.39-4.18-4.81-8.36-7.21-12.53-.22-.38-.43-.77-.61-1.17-.3-.71-.06-1.1.71-1.1.56,0,1.12.07,1.68.1,4.74.29,9.48.57,14.22.87,7.55.47,15.1.95,22.65,1.43,3.15.2,6.3.41,9.45.61,1.81.11,2.03.5,1.12,2.11-3.76,6.65-7.52,13.3-11.28,19.95Z" style="fill: #3248b2;"/>
            <path d="M59.68,330.24c3.67-6.48,7.33-12.95,11-19.43.2-.36.42-.72.68-1.04.5-.61.94-.6,1.43.03.23.29.4.61.61.92,5.47,8.09,10.93,16.19,16.41,24.27,3.12,4.6,6.25,9.19,9.38,13.78.14.2.25.42.34.65.21.51.06.89-.5.98-.58.09-1.17.13-1.75.14-8.17.21-16.34.42-24.51.63-6.16.16-12.32.33-18.49.5-1.56.04-3.13.12-4.69.14-1.64.02-1.88-.42-1.05-1.88,3.71-6.56,7.43-13.12,11.14-19.69Z" style="fill: #3248b2;"/>
          </g>
          <g>
            <path d="M205.93,260.66c-2.62-3.1-5.04-5.61-7.68-8.7-1.73-2.03-3.51-4.02-5.27-6.02-2.05-2.34-4.09-4.68-6.14-7.02-1.79-2.04-3.58-4.09-5.37-6.13-2.01-2.3-4.03-4.61-6.04-6.91-1.8-2.06-3.61-4.12-5.41-6.19-2.03-2.32-4.06-4.64-6.09-6.96-.27-.31-.61-.57-.87-.89-.59-.71-.4-1.31.49-1.5,2.61-.55,5.23-1.06,7.84-1.59,4.06-.81,8.11-1.63,12.17-2.43,4.68-.93,9.36-1.85,14.05-2.78.86-.17,1.73-.35,2.59-.52,1.2-.23,1.64.03,1.92,1.21,1.21,5.17,2.39,10.35,3.59,15.53.9,3.89,1.84,7.77,2.74,11.65,1.67,7.13,3.32,14.26,4.98,21.39.86,3.67,1.72,7.34,2.59,11.01.23.98-.12,1.56-1.13,1.76-.98.19-1.98.34-2.97.51-.87.14-1.53-.25-2.07-.87-1.18-1.37-2.34-2.76-3.51-4.14-.08.07-.35-.47-.42-.41Z" style="fill: #3248b2;"/>
            <path d="M271.66,121.71c2.95,3.71,5.91,7.42,8.86,11.14,1.69,2.13,3.36,4.27,5.04,6.4,2.85,3.61,5.7,7.21,8.55,10.82,1.71,2.17,3.42,4.34,5.13,6.51,2.8,3.55,5.61,7.1,8.41,10.65,1.71,2.17,3.42,4.34,5.13,6.51.82,1.04,1.63,2.08,2.44,3.12.58.74.8,1.54.46,2.47-.29.78-.5,1.59-.81,2.36-.36.89-.79,1.06-1.68.72-.53-.2-1.03-.45-1.55-.67-10.55-4.53-21.11-9.06-31.65-13.6-7.38-3.17-14.75-6.37-22.12-9.55-.27-.12-.54-.23-.8-.36-.84-.44-1.05-.84-.75-1.73.66-1.94,1.38-3.87,2.08-5.8,2.48-6.78,4.96-13.56,7.45-20.33,1.13-3.08,2.27-6.15,3.42-9.22.4-1.07.91-1.15,1.68-.29.25.27.48.56.71.84,0,0-.01.01-.02.02Z" style="fill: #3248b2;"/>
            <path d="M239.97,194.13c-.48.9-1,1.75-1.41,2.66-1.98,4.45-3.93,8.92-5.9,13.37-1.92,4.34-3.85,8.68-5.81,13.01-.16.35-.49.62-.74.93-.23-.35-.57-.67-.66-1.05-1.32-5.6-2.6-11.21-3.91-16.81-.92-3.93-1.86-7.86-2.78-11.8-1.65-7.08-3.3-14.16-4.95-21.24-.93-3.98-1.85-7.96-2.77-11.95-.06-.26-.13-.52-.17-.79-.16-1.08.18-1.38,1.22-.97,1.48.59,2.93,1.24,4.39,1.87,4.36,1.87,8.73,3.75,13.09,5.63,11.4,4.91,22.8,9.83,34.2,14.75,2.29.99,4.57,2,6.86,3.01.09.04.2.06.27.12.25.23.49.48.74.73-.27.21-.52.51-.82.61-.98.31-1.98.56-2.98.8-3.85.95-7.71,1.87-11.56,2.82-4.66,1.15-9.32,2.29-13.97,3.47-.77.2-1.51.54-2.34.84Z" style="fill: #fff;"/>
            <path d="M245.13,152.36c-.54.37-1.04.29-1.53.08-10.84-4.67-21.68-9.34-32.51-14-6.14-2.64-12.28-5.29-18.41-7.93-.27-.12-.57-.2-.79-.38-.23-.18-.38-.46-.56-.69.22-.17.42-.43.66-.5,1.06-.29,2.13-.54,3.2-.79,3.55-.81,7.11-1.61,10.66-2.41,3.2-.72,6.39-1.43,9.59-2.16,3.12-.71,6.24-1.44,9.36-2.16,2.5-.57,5.01-1.13,7.52-1.69,2.65-.6,5.3-1.2,7.94-1.79,3.24-.73,6.49-1.47,9.73-2.2,2.81-.64,5.63-1.28,8.44-1.92.14-.03.28-.08.43-.1,1.01-.11,1.31.22.96,1.18-.73,2-1.51,3.98-2.28,5.96-1.8,4.63-3.59,9.25-5.4,13.88-1.57,4.01-3.16,8-4.73,12.01-.58,1.48-1.13,2.97-1.71,4.45-.16.4-.38.78-.57,1.17Z" style="fill: #3248b2;"/>
            <path d="M198.26,190.87c-.18.06-.47.19-.78.25-5.96,1.16-11.92,2.3-17.87,3.46-4.11.8-8.21,1.62-12.32,2.42-2.59.51-5.19.99-7.79,1.49-.17.03-.34.05-.51.07-1.03.11-1.33-.27-.98-1.23.11-.3.24-.59.37-.88,8.65-20.16,17.31-40.33,25.96-60.49.19-.45.37-.91.64-1.31.35-.52.75-.45.93.14.25.82.44,1.66.63,2.49,1,4.27,1.99,8.54,2.98,12.81,1.64,7.03,3.28,14.07,4.92,21.1,1.4,6.01,2.81,12.02,4.21,18.02.13.56.22,1.12-.39,1.66Z" style="fill: #3248b2;"/>
            <path d="M267.01,234.98c4.85,5.74,9.71,11.48,14.56,17.22.16.19.32.37.47.57.76,1,.55,1.52-.7,1.73-1.79.3-3.57.58-5.36.88-4.9.82-9.8,1.65-14.69,2.46-4.85.81-9.7,1.59-14.55,2.41-4.75.8-9.5,1.61-14.26,2.41-.43.07-.87.14-1.31.16-.77.04-1.05-.33-.79-1.05.19-.53.45-1.03.68-1.54,1.92-4.35,3.83-8.69,5.75-13.04,3.06-6.92,6.13-13.83,9.19-20.75,1.28-2.89,2.57-5.77,3.85-8.66.73-1.65,1.18-1.72,2.37-.31,4.94,5.83,9.86,11.67,14.8,17.5Z" style="fill: #3248b2;"/>
            <path d="M277.09,226.83c-4.8-5.68-9.61-11.37-14.41-17.05-.27-.32-.53-.64-.74-1-.4-.68-.24-1.08.53-1.33.35-.11.71-.16,1.07-.25,9.49-2.32,18.97-4.64,28.46-6.98,5.4-1.33,10.78-2.68,16.18-4.02.24-.06.48-.09.73-.1.55-.02.86.25.75.81-.11.57-.28,1.14-.47,1.69-2.63,7.74-5.28,15.47-7.91,23.2-1.99,5.84-3.96,11.67-5.94,17.51-.5,1.48-.97,2.98-1.5,4.45-.55,1.55-1.05,1.61-2.13.33-4.87-5.76-9.74-11.52-14.6-17.27Z" style="fill: #3248b2;"/>
          </g>
        </g>
        <g>
          <path d="M163.53-2.16c2-3.54,3.52-6.68,5.5-10.22,1.3-2.33,2.55-4.69,3.82-7.03,1.48-2.73,2.97-5.46,4.46-8.19,1.3-2.39,2.59-4.77,3.89-7.16,1.46-2.69,2.92-5.37,4.39-8.06,1.31-2.41,2.62-4.82,3.93-7.22,1.47-2.71,2.95-5.42,4.42-8.13.2-.36.32-.77.53-1.13.46-.8,1.09-.83,1.57-.06,1.42,2.26,2.81,4.54,4.21,6.81,2.17,3.52,4.34,7.04,6.5,10.57,2.5,4.07,4.98,8.14,7.48,12.21.46.75.93,1.5,1.38,2.25.63,1.04.55,1.55-.47,2.22-4.43,2.93-8.88,5.83-13.32,8.75-3.33,2.2-6.65,4.42-9.98,6.62-6.11,4.03-12.22,8.06-18.33,12.09-3.15,2.08-6.29,4.16-9.43,6.24-.84.56-1.51.43-2.04-.45-.52-.86-1.01-1.73-1.51-2.61-.44-.77-.29-1.52.1-2.24.87-1.58,1.78-3.15,2.67-4.73-.09-.05.32-.49.24-.54Z" style="fill: #3248b2;"/>
          <path d="M316.65,11.3c-2.46,4.06-4.91,8.12-7.38,12.17-1.41,2.32-2.84,4.63-4.25,6.95-2.4,3.92-4.79,7.85-7.18,11.78-1.44,2.36-2.89,4.71-4.33,7.07-2.36,3.86-4.71,7.72-7.07,11.59-1.44,2.36-2.88,4.71-4.33,7.07-.69,1.13-1.39,2.25-2.08,3.37-.5.81-1.17,1.29-2.16,1.28-.83,0-1.66.08-2.49.06-.96-.03-1.26-.37-1.26-1.32,0-.56.06-1.12.09-1.69.59-11.47,1.17-22.94,1.77-34.4.42-8.02.86-16.04,1.29-24.06.02-.29.02-.59.06-.88.12-.94.42-1.28,1.36-1.3,2.05-.05,4.11-.05,6.17-.06,7.22-.02,14.44-.04,21.66-.06,3.28,0,6.56,0,9.84.01,1.14,0,1.4.45.86,1.47-.17.32-.36.64-.54.96,0,0-.02,0-.02-.01Z" style="fill: #3248b2;"/>
          <path d="M237.74,6.69c-1.01-.14-1.99-.33-2.98-.4-4.86-.32-9.73-.59-14.59-.9-4.74-.3-9.48-.61-14.22-.93-.38-.03-.75-.24-1.13-.37.25-.33.43-.76.76-.98,4.79-3.18,9.61-6.33,14.41-9.5,3.37-2.22,6.73-4.47,10.1-6.7,6.07-4.01,12.14-8.01,18.21-12.01,3.41-2.25,6.83-4.5,10.24-6.75.22-.15.45-.3.68-.43.96-.53,1.36-.31,1.33.81-.04,1.59-.15,3.18-.23,4.77-.24,4.74-.49,9.49-.74,14.23-.66,12.4-1.31,24.79-1.98,37.19-.13,2.49-.29,4.99-.44,7.48,0,.1.01.21-.02.29-.13.32-.28.63-.43.94-.29-.18-.66-.31-.85-.56-.63-.81-1.21-1.66-1.78-2.52-2.22-3.29-4.43-6.58-6.66-9.87-2.69-3.97-5.38-7.95-8.1-11.9-.45-.66-1.03-1.23-1.6-1.9Z" style="fill: #fff;"/>
          <path d="M208.79,46.22c-3.7,6.54-7.4,13.08-11.11,19.63-.12.21-.24.43-.37.64-.68,1.06-1.24,1.04-1.87-.06-.9-1.57-1.78-3.15-2.68-4.72-2.47-4.31-4.94-8.62-7.41-12.93-2.44-4.27-4.86-8.55-7.3-12.82-2.39-4.18-4.81-8.36-7.21-12.53-.22-.38-.43-.77-.61-1.17-.3-.71-.06-1.1.71-1.1.56,0,1.12.07,1.68.1,4.74.29,9.48.57,14.22.87,7.55.47,15.1.95,22.65,1.43,3.15.2,6.3.41,9.45.61,1.81.11,2.03.5,1.12,2.11-3.76,6.65-7.52,13.3-11.28,19.95Z" style="fill: #3248b2;"/>
          <path d="M219.93,52.84c3.67-6.48,7.33-12.95,11-19.43.2-.36.42-.72.68-1.04.5-.61.94-.6,1.43.03.23.29.4.61.61.92,5.47,8.09,10.93,16.19,16.41,24.27,3.12,4.6,6.25,9.19,9.38,13.78.14.2.25.42.34.65.21.51.06.89-.5.98-.58.09-1.17.13-1.75.14-8.17.21-16.34.42-24.51.63-6.16.16-12.32.33-18.49.5-1.56.04-3.13.12-4.69.14-1.64.02-1.88-.42-1.05-1.88,3.71-6.56,7.43-13.12,11.14-19.69Z" style="fill: #3248b2;"/>
        </g>
        <g>
          <path d="M157.05,96.34c-1.96,3.56-3.45,6.71-5.39,10.28-1.28,2.34-2.5,4.71-3.75,7.07-1.46,2.75-2.91,5.49-4.37,8.24-1.27,2.4-2.54,4.8-3.82,7.2-1.43,2.7-2.87,5.4-4.3,8.11-1.28,2.42-2.57,4.84-3.85,7.27-1.44,2.72-2.89,5.45-4.33,8.17-.19.37-.31.77-.52,1.13-.46.8-1.08.84-1.57.08-1.44-2.24-2.86-4.51-4.28-6.76-2.21-3.5-4.41-7-6.61-10.5-2.54-4.04-5.07-8.09-7.6-12.13-.47-.75-.94-1.49-1.41-2.24-.64-1.04-.56-1.54.45-2.23,4.4-2.97,8.82-5.92,13.23-8.89,3.31-2.23,6.6-4.49,9.91-6.72,6.07-4.1,12.14-8.19,18.21-12.28,3.12-2.11,6.24-4.23,9.36-6.34.84-.57,1.5-.44,2.04.43.53.85,1.03,1.72,1.53,2.59.45.76.31,1.52-.08,2.24-.86,1.59-1.74,3.17-2.62,4.76.09.05-.32.49-.23.54Z" style="fill: #3248b2;"/>
          <path d="M3.79,84.49c2.42-4.08,4.83-8.17,7.25-12.25,1.39-2.33,2.79-4.66,4.18-6.99,2.36-3.95,4.71-7.9,7.06-11.85,1.42-2.37,2.84-4.74,4.25-7.12,2.32-3.89,4.63-7.77,6.95-11.66,1.42-2.37,2.83-4.74,4.25-7.12.68-1.13,1.37-2.26,2.05-3.39.49-.81,1.15-1.3,2.14-1.31.83,0,1.66-.1,2.49-.08.96.02,1.27.36,1.27,1.31,0,.56-.05,1.12-.07,1.69-.47,11.47-.93,22.95-1.41,34.42-.34,8.02-.69,16.05-1.04,24.07-.01.29-.02.59-.05.88-.11.94-.41,1.28-1.35,1.32-2.05.07-4.11.09-6.16.12-7.22.1-14.44.2-21.66.29-3.28.04-6.56.07-9.84.09-1.14,0-1.4-.44-.87-1.47.17-.33.35-.64.53-.97,0,0,.02,0,.02.01Z" style="fill: #3248b2;"/>
          <path d="M82.75,88.27c1.01.13,1.99.31,2.99.37,4.86.27,9.73.49,14.6.75,4.74.25,9.48.51,14.23.78.38.02.75.24,1.13.36-.25.33-.42.77-.75.99-4.76,3.23-9.54,6.43-14.31,9.65-3.35,2.26-6.68,4.54-10.03,6.8-6.03,4.07-12.05,8.13-18.08,12.2-3.39,2.29-6.78,4.57-10.17,6.85-.22.15-.44.31-.68.44-.95.54-1.35.32-1.34-.79.02-1.59.12-3.18.18-4.77.2-4.75.39-9.49.59-14.24.53-12.4,1.05-24.81,1.59-37.21.11-2.49.24-4.99.36-7.48,0-.1-.02-.21.02-.29.13-.32.28-.63.42-.95.29.18.66.3.86.55.64.81,1.22,1.65,1.81,2.5,2.26,3.26,4.5,6.53,6.76,9.8,2.73,3.95,5.47,7.89,8.22,11.82.46.65,1.04,1.22,1.62,1.89Z" style="fill: #fff;"/>
          <path d="M41.88,98.35c.53.37.64.87.62,1.4-.49,11.79-.99,23.58-1.49,35.37-.28,6.68-.56,13.35-.84,20.03-.01.29.02.6-.07.87-.09.28-.29.52-.45.77-.24-.14-.55-.24-.7-.44-.65-.89-1.27-1.8-1.88-2.71-2.02-3.03-4.04-6.07-6.06-9.1-1.81-2.73-3.62-5.46-5.44-8.19-1.78-2.66-3.57-5.32-5.35-7.98-1.43-2.14-2.84-4.28-4.26-6.42-1.5-2.26-3.01-4.52-4.51-6.78-1.84-2.77-3.68-5.54-5.53-8.31-1.6-2.4-3.2-4.8-4.8-7.2-.08-.12-.18-.24-.24-.37-.46-.9-.26-1.3.75-1.32,2.13-.04,4.26,0,6.38,0,4.96.03,9.93.06,14.89.1,4.3.04,8.61.1,12.91.14,1.59.02,3.18,0,4.77,0,.43,0,.86.08,1.29.12Z" style="fill: #3248b2;"/>
          <path d="M94.58,128.4c.12.15.35.37.51.64,3.2,5.15,6.4,10.31,9.6,15.47,2.21,3.55,4.44,7.09,6.65,10.65,1.4,2.24,2.78,4.5,4.17,6.74.09.15.17.3.25.45.47.92.23,1.34-.8,1.35-.32,0-.64-.02-.95-.03-21.92-.89-43.85-1.79-65.77-2.69-.49-.02-.99-.02-1.46-.13-.61-.14-.69-.54-.2-.92.68-.52,1.39-1,2.1-1.48,3.63-2.45,7.27-4.9,10.9-7.35,5.99-4.04,11.98-8.08,17.96-12.12,5.11-3.45,10.22-6.91,15.34-10.36.47-.32.97-.6,1.69-.22Z" style="fill: #3248b2;"/>
          <path d="M111.28,48.44c3.63-6.58,7.27-13.16,10.9-19.74.12-.21.23-.43.36-.64.66-1.06,1.23-1.05,1.87.04.91,1.56,1.81,3.13,2.73,4.69,2.51,4.28,5.03,8.56,7.54,12.85,2.48,4.24,4.95,8.5,7.44,12.74,2.44,4.16,4.89,8.3,7.34,12.46.22.38.44.76.62,1.17.31.71.07,1.1-.7,1.11-.56,0-1.12-.06-1.68-.09-4.74-.24-9.49-.47-14.23-.72-7.55-.39-15.11-.79-22.66-1.19-3.15-.17-6.31-.34-9.46-.51-1.81-.09-2.03-.48-1.14-2.1,3.69-6.69,7.38-13.38,11.07-20.06Z" style="fill: #3248b2;"/>
          <path d="M100.07,41.93c-3.6,6.51-7.19,13.03-10.79,19.54-.2.36-.41.73-.67,1.05-.5.62-.93.61-1.43-.02-.23-.28-.41-.61-.62-.91-5.55-8.03-11.1-16.07-16.67-24.1-3.16-4.57-6.35-9.12-9.52-13.68-.14-.2-.26-.42-.35-.64-.21-.51-.07-.89.49-.99.58-.1,1.16-.14,1.75-.16,8.17-.3,16.33-.59,24.5-.89,6.16-.23,12.32-.46,18.48-.69,1.56-.06,3.13-.15,4.69-.19,1.64-.04,1.88.4,1.07,1.87-3.64,6.6-7.29,13.2-10.93,19.8Z" style="fill: #3248b2;"/>
        </g>
      </g>
    </pattern>
  </defs>
  <rect width="1920" height="1080" style="fill: #192459;"/>
  <rect width="1920" height="1080" style="fill: url(#d); opacity: .34;"/>
</svg>