<?xml version="1.0" encoding="utf-8"?>
<svg id="e" data-name="Text" xmlns="http://www.w3.org/2000/svg" viewBox="0 0 1385 303">
  <rect width="1385" height="303"/>
  <g>
    <path d="M74.51,144.39c2.84-5.01,4.99-9.47,7.8-14.5,1.84-3.3,3.62-6.64,5.42-9.97,2.11-3.87,4.21-7.74,6.32-11.62,1.84-3.38,3.68-6.77,5.52-10.15,2.07-3.81,4.15-7.62,6.22-11.43,1.86-3.41,3.71-6.83,5.57-10.25,2.09-3.84,4.18-7.68,6.27-11.53.28-.52.46-1.09.75-1.6.66-1.13,1.54-1.18,2.23-.08,2.01,3.2,3.98,6.43,5.97,9.65,3.08,5,6.15,9.99,9.22,14.99,3.54,5.77,7.07,11.55,10.6,17.32.65,1.07,1.32,2.12,1.96,3.2.89,1.48.77,2.2-.67,3.15-6.29,4.15-12.6,8.27-18.89,12.42-4.73,3.11-9.43,6.26-14.15,9.38-8.66,5.72-17.34,11.43-26,17.15-4.46,2.95-8.92,5.9-13.37,8.86-1.19.79-2.14.6-2.89-.64-.74-1.21-1.43-2.46-2.14-3.7-.62-1.09-.42-2.16.14-3.18,1.24-2.25,2.52-4.47,3.78-6.71-.12-.07.46-.69.34-.76Z" style="fill: #fff;"/>
    <path d="M291.68,163.49c-3.49,5.76-6.97,11.52-10.46,17.27-2,3.29-4.02,6.56-6.03,9.85-3.4,5.57-6.79,11.13-10.19,16.7-2.04,3.35-4.09,6.69-6.13,10.03-3.35,5.48-6.69,10.95-10.03,16.43-2.04,3.34-4.09,6.69-6.14,10.03-.98,1.6-1.97,3.19-2.95,4.78-.7,1.14-1.66,1.83-3.06,1.82-1.18,0-2.36.12-3.54.08-1.36-.04-1.79-.53-1.79-1.87,0-.8.08-1.59.13-2.39.84-16.26,1.67-32.53,2.52-48.79.59-11.37,1.22-22.75,1.83-34.12.02-.42.03-.83.09-1.25.17-1.33.6-1.81,1.93-1.85,2.91-.07,5.83-.07,8.74-.08,10.24-.03,20.48-.06,30.72-.08,4.65,0,9.3,0,13.95.01,1.62,0,1.98.64,1.22,2.09-.24.46-.51.91-.77,1.36-.01,0-.02-.01-.03-.02Z" style="fill: #fff;"/>
    <path d="M181.76,156.95c-1.43-.2-2.82-.47-4.23-.56-6.89-.45-13.79-.84-20.69-1.28-6.72-.42-13.44-.86-20.16-1.32-.54-.04-1.06-.35-1.6-.53.35-.47.61-1.08,1.07-1.39,6.8-4.51,13.63-8.98,20.44-13.47,4.78-3.15,9.55-6.34,14.33-9.5,8.61-5.68,17.22-11.36,25.83-17.03,4.84-3.19,9.68-6.38,14.53-9.57.32-.21.64-.43.97-.61,1.36-.75,1.93-.43,1.89,1.15-.06,2.26-.21,4.51-.33,6.76-.35,6.73-.69,13.46-1.05,20.19-.93,17.58-1.86,35.16-2.8,52.75-.19,3.54-.42,7.07-.63,10.61,0,.14.02.29-.03.41-.19.45-.4.89-.61,1.34-.41-.26-.93-.44-1.21-.8-.89-1.15-1.71-2.36-2.53-3.57-3.15-4.66-6.28-9.33-9.44-13.99-3.82-5.64-7.64-11.27-11.49-16.88-.64-.93-1.45-1.74-2.27-2.7Z" style="fill: #fff;"/>
    <path d="M237.86,143.27c-.75-.53-.9-1.24-.86-2,.88-16.71,1.76-33.42,2.64-50.14.5-9.46,1-18.93,1.49-28.39.02-.42-.02-.85.11-1.24.13-.39.42-.73.65-1.09.34.21.77.34.99.64.91,1.27,1.77,2.57,2.62,3.88,2.82,4.33,5.64,8.66,8.46,13,2.53,3.9,5.05,7.8,7.59,11.69,2.48,3.8,4.99,7.59,7.47,11.4,1.99,3.05,3.96,6.11,5.95,9.17,2.1,3.23,4.19,6.46,6.29,9.68,2.57,3.95,5.14,7.91,7.71,11.86,2.23,3.43,4.47,6.86,6.7,10.29.11.17.25.34.34.52.63,1.29.35,1.85-1.09,1.86-3.02.02-6.03-.05-9.05-.1-7.04-.11-14.08-.23-21.12-.36-6.1-.12-12.2-.27-18.31-.39-2.25-.05-4.51-.04-6.76-.08-.61-.01-1.22-.12-1.83-.19Z" style="fill: #fff;"/>
    <path d="M163.57,99.86c-.17-.21-.49-.53-.72-.91-4.47-7.36-8.92-14.72-13.39-22.08-3.08-5.07-6.19-10.13-9.27-15.2-1.95-3.2-3.88-6.42-5.81-9.63-.13-.21-.24-.42-.35-.64-.65-1.32-.3-1.9,1.15-1.9.45,0,.9.04,1.35.06,31.08,1.59,62.16,3.19,93.23,4.79.69.04,1.4.05,2.07.21.86.21.97.77.27,1.3-.97.73-1.99,1.4-3,2.07-5.19,3.42-10.38,6.84-15.57,10.26-8.55,5.64-17.1,11.28-25.66,16.92-7.3,4.82-14.6,9.64-21.91,14.46-.68.45-1.38.84-2.4.29Z" style="fill: #fff;"/>
    <path d="M138.71,213.01c-5.25,9.28-10.5,18.56-15.75,27.84-.17.3-.33.61-.52.9-.96,1.5-1.76,1.48-2.65-.08-1.27-2.23-2.53-4.47-3.8-6.7-3.5-6.11-7.01-12.22-10.5-18.34-3.46-6.06-6.89-12.13-10.36-18.18-3.4-5.93-6.82-11.85-10.22-17.78-.31-.54-.62-1.09-.86-1.66-.43-1.01-.08-1.56,1-1.56.8,0,1.59.1,2.39.15,6.72.41,13.45.81,20.17,1.23,10.71.67,21.41,1.35,32.12,2.03,4.47.28,8.94.58,13.41.86,2.56.16,2.87.72,1.58,3-5.33,9.43-10.67,18.86-16,28.29Z" style="fill: #fff;"/>
    <path d="M154.51,222.41c5.2-9.19,10.39-18.37,15.6-27.56.29-.51.6-1.02.97-1.48.71-.87,1.33-.85,2.03.04.32.41.57.87.86,1.3,7.76,11.48,15.51,22.96,23.28,34.42,4.42,6.52,8.87,13.03,13.3,19.54.19.28.36.6.49.92.3.73.08,1.27-.71,1.39-.82.13-1.65.18-2.48.21-11.58.3-23.17.59-34.75.89-8.74.23-17.48.47-26.22.71-2.22.06-4.44.17-6.66.19-2.33.03-2.66-.6-1.49-2.67,5.26-9.31,10.53-18.61,15.8-27.92Z" style="fill: #fff;"/>
  </g>
  <text transform="translate(377.02 194.8)" style="fill: rgb(255, 255, 255); font-size: 122.02px; white-space: pre;"><tspan x="0" y="0" style="font-family: AllumiStd-Demi, 'Allumi Std'; font-weight: 300; letter-spacing: -.01em;">IndoorNAV</tspan><tspan x="620.34" y="0" style="font-family: AllumiStd-Demi, 'Allumi Std'; font-weight: 300; letter-spacing: -.13em;"> </tspan><tspan x="639.38" y="0" style="font-family: AllumiStd-ExtraBold, 'Allumi Std'; font-weight: 700; letter-spacing: -.01em;">PRO</tspan></text>
</svg>