<?xml version="1.0" encoding="UTF-8"?>
<svg id="d" data-name="logos" xmlns="http://www.w3.org/2000/svg" viewBox="0 0 1385 303">
  <g class="logo-color">
    <path d="M72.77,149.74c2.8-4.94,4.91-9.33,7.68-14.29,1.82-3.25,3.56-6.55,5.34-9.82,2.07-3.82,4.15-7.63,6.23-11.45,1.81-3.34,3.62-6.67,5.44-10.01,2.04-3.76,4.09-7.51,6.13-11.27,1.83-3.37,3.66-6.73,5.49-10.1,2.06-3.79,4.12-7.57,6.17-11.36.28-.51.45-1.08.74-1.58.65-1.11,1.52-1.16,2.2-.08,1.98,3.16,3.93,6.34,5.88,9.51,3.03,4.92,6.06,9.84,9.09,14.77,3.49,5.69,6.97,11.38,10.45,17.07.64,1.05,1.3,2.09,1.93,3.15.88,1.46.76,2.17-.66,3.1-6.2,4.09-12.41,8.15-18.61,12.24-4.66,3.07-9.29,6.17-13.95,9.25-8.54,5.64-17.08,11.26-25.62,16.9-4.4,2.9-8.79,5.82-13.18,8.73-1.18.78-2.1.6-2.85-.63-.73-1.2-1.41-2.42-2.1-3.64-.61-1.07-.41-2.13.14-3.13,1.22-2.21,2.48-4.41,3.73-6.61-.12-.07.45-.68.33-.75Z" style="fill: currentColor;"/>
    <path d="M286.78,168.55c-3.44,5.67-6.86,11.35-10.31,17.02-1.97,3.24-3.97,6.47-5.94,9.71-3.35,5.48-6.69,10.97-10.04,16.46-2.01,3.3-4.03,6.59-6.05,9.88-3.3,5.4-6.59,10.8-9.89,16.19-2.01,3.3-4.03,6.59-6.05,9.88-.97,1.57-1.94,3.14-2.91,4.71-.69,1.13-1.63,1.8-3.01,1.8-1.16,0-2.33.12-3.49.08-1.34-.04-1.77-.52-1.76-1.85,0-.79.08-1.57.12-2.36.83-16.03,1.64-32.06,2.48-48.09.59-11.21,1.2-22.42,1.81-33.62.02-.41.03-.82.09-1.23.17-1.31.59-1.79,1.91-1.82,2.87-.07,5.74-.07,8.62-.08,10.09-.03,20.18-.06,30.27-.08,4.58,0,9.17,0,13.75.01,1.6,0,1.95.63,1.2,2.06-.24.45-.5.89-.76,1.34-.01,0-.02-.01-.03-.02Z" style="fill: currentColor;"/>
    <path d="M176.48,162.11c-1.41-.19-2.78-.46-4.17-.56-6.79-.44-13.59-.83-20.39-1.26-6.62-.42-13.25-.85-19.87-1.3-.53-.04-1.05-.34-1.57-.52.35-.46.6-1.07,1.06-1.37,6.7-4.45,13.43-8.85,20.14-13.27,4.71-3.11,9.41-6.25,14.12-9.36,8.48-5.6,16.97-11.19,25.45-16.79,4.77-3.15,9.54-6.29,14.32-9.43.31-.21.63-.42.96-.6,1.34-.74,1.9-.43,1.86,1.13-.06,2.22-.21,4.44-.32,6.67-.34,6.63-.68,13.26-1.03,19.89-.92,17.33-1.84,34.65-2.76,51.98-.19,3.49-.41,6.97-.62,10.45,0,.14.02.29-.03.41-.19.44-.4.88-.6,1.32-.4-.26-.92-.43-1.19-.79-.88-1.13-1.69-2.33-2.49-3.52-3.11-4.59-6.19-9.2-9.3-13.79-3.76-5.55-7.52-11.11-11.32-16.64-.63-.92-1.43-1.72-2.23-2.66Z" style="fill: currentColor;"/>
    <path d="M233.75,148.63c-.74-.53-.89-1.22-.85-1.97.86-16.47,1.73-32.94,2.6-49.41.49-9.33.98-18.65,1.47-27.98.02-.41-.01-.84.11-1.22.13-.39.42-.72.64-1.07.33.21.76.34.97.63.9,1.25,1.74,2.53,2.58,3.82,2.78,4.26,5.56,8.54,8.33,12.81,2.49,3.84,4.98,7.69,7.48,11.52,2.45,3.75,4.92,7.48,7.37,11.23,1.96,3,3.91,6.02,5.86,9.03,2.07,3.18,4.13,6.36,6.2,9.54,2.53,3.9,5.07,7.79,7.6,11.69,2.2,3.38,4.4,6.76,6.6,10.14.11.17.25.33.34.51.63,1.27.35,1.83-1.07,1.83-2.97.02-5.95-.05-8.92-.1-6.94-.11-13.87-.22-20.81-.36-6.01-.11-12.03-.26-18.04-.39-2.22-.04-4.44-.04-6.66-.08-.6-.01-1.2-.12-1.81-.18Z" style="fill: currentColor;"/>
    <path d="M160.54,105.85c-.16-.21-.48-.52-.71-.9-4.4-7.25-8.79-14.51-13.19-21.76-3.04-5-6.1-9.98-9.14-14.98-1.92-3.16-3.82-6.32-5.73-9.49-.12-.2-.24-.42-.34-.63-.64-1.3-.3-1.87,1.13-1.88.44,0,.89.04,1.33.06,30.63,1.57,61.25,3.14,91.88,4.72.68.04,1.38.05,2.04.21.85.21.96.76.26,1.29-.95.72-1.96,1.38-2.96,2.04-5.11,3.37-10.23,6.74-15.34,10.11-8.43,5.56-16.86,11.11-25.28,16.67-7.2,4.75-14.39,9.5-21.59,14.25-.67.44-1.36.83-2.36.29Z" style="fill: currentColor;"/>
    <path d="M136.03,217.35c-5.17,9.14-10.35,18.29-15.52,27.43-.17.3-.33.6-.51.89-.94,1.48-1.73,1.46-2.61-.08-1.26-2.2-2.49-4.4-3.75-6.6-3.45-6.02-6.91-12.04-10.35-18.07-3.41-5.97-6.79-11.95-10.21-17.91-3.35-5.85-6.72-11.68-10.07-17.52-.31-.53-.61-1.08-.85-1.64-.43-1-.08-1.54.99-1.54.78,0,1.57.1,2.35.15,6.62.41,13.25.8,19.87,1.22,10.55.66,21.1,1.33,31.65,2,4.4.28,8.81.57,13.21.85,2.52.16,2.83.71,1.56,2.95-5.25,9.3-10.51,18.59-15.77,27.88Z" style="fill: currentColor;"/>
    <path d="M151.6,226.62c5.12-9.05,10.24-18.11,15.37-27.15.29-.5.59-1.01.95-1.45.7-.85,1.31-.83,2,.04.32.4.56.86.85,1.28,7.64,11.31,15.28,22.62,22.94,33.92,4.35,6.43,8.74,12.84,13.11,19.26.19.28.35.59.48.9.29.71.08,1.25-.7,1.37-.81.13-1.63.18-2.45.2-11.42.3-22.83.58-34.25.88-8.61.22-17.23.46-25.84.7-2.19.06-4.37.17-6.56.19-2.29.03-2.62-.59-1.47-2.63,5.19-9.17,10.38-18.34,15.57-27.51Z" style="fill: currentColor;"/>
  </g>
  <g class="logo-text">
    <path d="M381.19,197.11v-82.77h14.02v82.77h-14.02Z" style="fill: currentColor;"/>
    <path d="M460.7,197.11v-38.18c0-9.91-5.32-13.41-13.53-13.41-4.71,0-9.91,1.33-16.55,3.75v47.85h-13.17v-61.02h11.12l.36,3.26c7.73-2.54,15.35-4.95,22.6-4.95,6.65,0,13.17,1.81,17.52,6.77,3.99,4.59,4.83,10.27,4.83,17.28v38.67h-13.17Z" style="fill: currentColor;"/>
    <path d="M533.32,197.11l-.36-3.26c-6.89,2.42-14.5,4.95-21.63,4.95s-12.69-2.17-17.04-6.52c-5.68-5.8-7.73-14.26-7.73-25.62,0-11.96,4.11-21.27,10.39-26.34,5.2-4.11,11.72-5.92,19.94-5.92,4.83,0,9.91,1.09,14.38,2.54v-26.58h13.17v86.76h-11.12ZM531.26,184.06v-36.73c-3.87-1.69-8.34-2.54-12.45-2.54-12.08,0-18.73,6.53-18.73,21.51s6.04,21.39,15.47,21.39c4.95,0,10.39-1.69,15.71-3.62Z" style="fill: currentColor;"/>
    <path d="M567.51,192.4c-6.28-5.32-9.18-13.9-9.18-25.74s2.78-20.54,9.18-25.86c5.68-4.83,13.17-6.4,21.27-6.4s15.47,1.57,21.27,6.4c6.16,5.32,9.06,13.9,9.18,25.74,0,11.84-2.9,20.54-9.18,25.86-5.8,4.83-13.29,6.4-21.27,6.4s-15.47-1.57-21.27-6.4ZM605.57,166.9c0-14.74-4.95-22.23-16.8-22.23s-16.8,6.53-16.8,21.63,4.95,22.35,16.8,22.35,16.8-6.65,16.8-21.75Z" style="fill: currentColor;"/>
    <path d="M638.56,192.4c-6.28-5.32-9.18-13.9-9.18-25.74s2.78-20.54,9.18-25.86c5.68-4.83,13.17-6.4,21.27-6.4s15.47,1.57,21.27,6.4c6.16,5.32,9.06,13.9,9.18,25.74,0,11.84-2.9,20.54-9.18,25.86-5.8,4.83-13.29,6.4-21.27,6.4s-15.47-1.57-21.27-6.4ZM676.62,166.9c0-14.74-4.95-22.23-16.8-22.23s-16.8,6.53-16.8,21.63,4.95,22.35,16.8,22.35,16.8-6.65,16.8-21.75Z" style="fill: currentColor;"/>
    <path d="M704.17,197.11v-61.02h11.12l.48,3.87c8.7-3.5,14.14-5.56,21.99-5.56h1.45v11.6h-3.38c-5.92,0-10.63,1.09-18.49,3.87v47.25h-13.17Z" style="fill: currentColor;"/>
    <path d="M804.46,197.11l-38.06-61.14h-.24v61.14h-12.93v-82.77h16.07l36.98,60.42h.36v-60.42h12.93v82.77h-15.1Z" style="fill: currentColor;"/>
    <path d="M896.05,197.11l-7.37-20.78h-33.95l-7.49,20.78h-14.38l30.45-82.77h17.28l30.57,82.77h-15.1ZM871.88,127.87h-.48l-13.05,37.22h26.58l-13.05-37.22Z" style="fill: currentColor;"/>
    <path d="M935.44,197.11l-29.36-82.77h15.1l22.96,67.67h.48l23.08-67.67h14.5l-29.48,82.77h-17.28Z" style="fill: currentColor;"/>
    <path d="M1072.22,166.06c-6.77,6.4-14.62,7.73-29.97,7.73h-9.3v23.32h-19.33v-82.77h32.02c12.2,0,20.78,1.21,27.19,7.49,4.95,4.83,7.37,12.57,7.37,21.87,0,10.15-2.9,17.76-7.98,22.35ZM1044.19,129.2h-11.24v29.73h11.36c11.24,0,16.31-4.59,16.31-15.1,0-11.84-6.65-14.62-16.43-14.62Z" style="fill: currentColor;"/>
    <path d="M1143.63,197.11l-16.67-29h-10.15v29h-19.33v-82.77h30.93c11.6,0,20.78,1.21,27.31,6.89,5.32,4.71,7.25,11.24,7.25,19.94,0,8.22-2.17,15.47-7.85,20.06-2.17,1.93-4.95,3.38-7.97,4.23l18.85,31.66h-22.35ZM1127.44,129.2h-10.63v24.77h10.75c11.12,0,15.71-3.75,15.71-12.33,0-9.79-5.92-12.45-15.83-12.45Z" style="fill: currentColor;"/>
    <path d="M1247.06,121.35c8.58,7.37,12.33,20.06,12.33,34.2s-3.5,27.19-12.2,34.56c-8.1,6.77-18.12,8.7-29.48,8.7s-21.39-1.81-29.36-8.7c-8.7-7.37-12.45-20.06-12.45-34.32s3.5-27.07,12.2-34.44c8.1-6.77,18-8.7,29.48-8.7s21.39,1.81,29.48,8.7ZM1239.69,156.27c0-18.37-6.52-27.91-21.99-27.91s-22.11,8.46-22.11,26.83,6.53,27.91,22.11,27.91,21.99-8.46,21.99-26.83Z" style="fill: currentColor;"/>
  </g>
  <style>
    .white-logo .logo-color, .white-logo .logo-text {
      fill: white;
    }
    .logo-color, .logo-text {
      fill: #192459;
    }
  </style>
</svg>