<?xml version="1.0" encoding="UTF-8"?>
<svg id="d" data-name="logos" xmlns="http://www.w3.org/2000/svg" viewBox="0 0 1385 303">
  <g>
    <path d="M87.01,146.02c2.85-5.04,5.73-10.43,8.55-15.48,1.85-3.32,3.64-6.68,5.45-10.02,2.12-3.89,4.24-7.78,6.35-11.68,1.85-3.4,3.7-6.81,5.55-10.21,2.08-3.83,4.17-7.66,6.25-11.49,1.87-3.43,3.73-6.87,5.6-10.3,2.1-3.86,4.21-7.72,6.3-11.59.28-.52.46-1.1.76-1.61.66-1.13,1.55-1.19,2.25-.09,2.02,3.22,4.01,6.47,6,9.7,3.09,5.02,6.19,10.04,9.27,15.07,3.56,5.8,7.1,11.61,10.66,17.41.66,1.07,1.32,2.14,1.97,3.21.89,1.49.78,2.21-.67,3.17-6.32,4.17-12.66,8.31-18.99,12.48-4.75,3.13-9.48,6.3-14.23,9.43-8.71,5.75-17.43,11.49-26.14,17.24-4.49,2.96-8.96,5.93-13.44,8.9-1.2.79-2.15.61-2.91-.64-.74-1.22-1.44-2.47-2.15-3.72-.62-1.09-.42-2.17.14-3.19" style="fill: #d6daf0;"/>
    <path d="M306.02,164.3c-3.5,5.79-7,11.58-10.51,17.36-2.01,3.31-4.05,6.6-6.06,9.9-3.42,5.59-6.83,11.19-10.24,16.79-2.05,3.36-4.11,6.72-6.17,10.08-3.36,5.5-6.72,11.01-10.08,16.52-2.05,3.36-4.11,6.72-6.17,10.08-.98,1.6-1.98,3.2-2.97,4.81-.71,1.15-1.66,1.84-3.08,1.83-1.19,0-2.37.12-3.56.08-1.36-.04-1.8-.53-1.8-1.88,0-.8.09-1.6.13-2.4.84-16.35,1.68-32.7,2.53-49.05.6-11.43,1.23-22.87,1.84-34.3.02-.42.03-.84.09-1.25.17-1.34.61-1.82,1.94-1.86,2.93-.07,5.86-.07,8.79-.08,10.29-.03,20.58-.06,30.88-.08,4.67,0,9.35,0,14.02.01,1.63,0,1.99.64,1.22,2.1-.24.46-.51.91-.77,1.37-.01,0-.02-.01-.03-.02Z" style="fill: #d6daf0;"/>
    <path d="M194.35,158.73c-1.42-.19-2.81-.47-4.2-.56-6.85-.45-13.71-.84-20.57-1.27-6.68-.42-13.36-.85-20.04-1.32-.54-.04-1.06-.34-1.59-.53.35-.47.61-1.08,1.07-1.38,6.76-4.49,13.55-8.92,20.32-13.39,4.76-3.14,9.49-6.3,14.24-9.44,8.55-5.65,17.12-11.29,25.67-16.93,4.81-3.17,9.63-6.34,14.44-9.51.32-.21.63-.42.96-.61,1.35-.74,1.92-.43,1.87,1.14-.06,2.24-.21,4.48-.33,6.72-.35,6.69-.69,13.38-1.04,20.07-.92,17.48-1.85,34.96-2.79,52.44-.19,3.52-.41,7.03-.62,10.54,0,.14.02.29-.03.41-.19.45-.4.89-.6,1.33-.41-.26-.92-.43-1.2-.79-.89-1.14-1.7-2.35-2.51-3.55-3.13-4.63-6.25-9.28-9.38-13.91-3.79-5.6-7.59-11.2-11.42-16.78-.64-.93-1.45-1.73-2.25-2.68Z" style="fill: #ffb700;"/>
    <path d="M251.93,143.97c-.75-.54-.9-1.25-.87-2.01.88-16.8,1.77-33.6,2.65-50.4.5-9.51,1-19.03,1.5-28.54.02-.42-.02-.86.11-1.25.13-.39.43-.73.65-1.1.34.21.78.34.99.64.92,1.27,1.78,2.58,2.64,3.9,2.84,4.35,5.67,8.71,8.5,13.06,2.54,3.92,5.08,7.84,7.63,11.75,2.5,3.82,5.02,7.63,7.51,11.46,2,3.07,3.99,6.14,5.98,9.21,2.11,3.25,4.22,6.49,6.33,9.73,2.58,3.98,5.17,7.95,7.75,11.92,2.24,3.45,4.49,6.89,6.74,10.34.11.18.25.34.34.52.64,1.29.36,1.86-1.09,1.87-3.03.02-6.07-.05-9.1-.1-7.08-.12-14.15-.23-21.23-.36-6.13-.12-12.27-.27-18.4-.39-2.27-.05-4.53-.04-6.8-.08-.61-.01-1.23-.12-1.84-.19Z" style="fill: #d6daf0;"/>
    <path d="M177.25,100.34c-.17-.21-.49-.54-.72-.92-4.49-7.39-8.97-14.8-13.46-22.19-3.1-5.1-6.22-10.18-9.32-15.28-1.96-3.22-3.9-6.45-5.84-9.68-.13-.21-.24-.43-.35-.65-.65-1.32-.3-1.91,1.15-1.91.45,0,.91.04,1.36.06,31.24,1.6,62.48,3.21,93.72,4.81.7.04,1.41.05,2.08.21.86.21.98.78.27,1.31-.97.74-2,1.4-3.02,2.08-5.21,3.44-10.43,6.87-15.65,10.31-8.6,5.67-17.19,11.33-25.79,17.01-7.34,4.84-14.68,9.69-22.02,14.54-.68.45-1.39.85-2.41.3Z" style="fill: #d6daf0;"/>
    <path d="M152.26,214.08c-5.28,9.33-10.55,18.65-15.83,27.98-.17.3-.34.61-.52.91-.96,1.5-1.77,1.48-2.66-.08-1.28-2.24-2.54-4.49-3.82-6.73-3.52-6.15-7.05-12.28-10.56-18.43-3.48-6.09-6.93-12.19-10.41-18.27-3.41-5.96-6.85-11.91-10.28-17.87-.31-.54-.62-1.1-.86-1.67-.43-1.02-.08-1.57,1.01-1.57.8,0,1.6.1,2.4.15,6.76.41,13.52.82,20.27,1.24,10.76.67,21.52,1.36,32.29,2.04,4.49.28,8.98.58,13.48.86,2.57.16,2.89.72,1.59,3.01-5.36,9.48-10.72,18.96-16.09,28.44Z" style="fill: #d6daf0;"/>
    <path d="M168.14,223.53c5.22-9.23,10.45-18.47,15.68-27.7.29-.51.6-1.03.97-1.48.72-.87,1.33-.85,2.04.04.32.41.57.87.87,1.31,7.8,11.54,15.59,23.08,23.4,34.6,4.44,6.56,8.91,13.1,13.37,19.65.19.29.36.6.49.92.3.73.08,1.27-.72,1.4-.82.13-1.66.18-2.5.21-11.65.3-23.29.59-34.94.9-8.79.23-17.57.47-26.36.71-2.23.06-4.46.17-6.69.2-2.34.03-2.68-.6-1.5-2.69,5.29-9.36,10.59-18.71,15.88-28.07Z" style="fill: #d6daf0;"/>
  </g>
  <g>
    <path d="M376.91,197.06v-84.43h14.3v84.43h-14.3Z" style="fill: #fff;"/>
    <path d="M458.01,197.06v-38.95c0-10.11-5.42-13.68-13.8-13.68-4.81,0-10.11,1.36-16.89,3.82v48.81h-13.44v-62.25h11.34l.37,3.33c7.89-2.59,15.65-5.05,23.05-5.05,6.78,0,13.44,1.85,17.87,6.9,4.07,4.68,4.93,10.48,4.93,17.63v39.44h-13.44Z" style="fill: #fff;"/>
    <path d="M532.09,197.06l-.37-3.33c-7.03,2.47-14.79,5.05-22.06,5.05s-12.94-2.22-17.38-6.66c-5.79-5.92-7.89-14.54-7.89-26.13,0-12.2,4.19-21.69,10.6-26.87,5.3-4.19,11.96-6.04,20.34-6.04,4.93,0,10.11,1.11,14.67,2.59v-27.12h13.44v88.5h-11.34ZM529.99,183.75v-37.47c-3.94-1.73-8.5-2.59-12.7-2.59-12.33,0-19.11,6.66-19.11,21.94s6.16,21.82,15.78,21.82c5.05,0,10.6-1.73,16.02-3.7Z" style="fill: #fff;"/>
    <path d="M566.96,192.25c-6.41-5.42-9.37-14.17-9.37-26.25s2.83-20.95,9.37-26.38c5.79-4.93,13.44-6.53,21.69-6.53s15.78,1.6,21.69,6.53c6.29,5.42,9.25,14.17,9.37,26.25,0,12.08-2.96,20.95-9.37,26.38-5.92,4.93-13.56,6.53-21.69,6.53s-15.78-1.6-21.69-6.53ZM605.79,166.24c0-15.04-5.05-22.68-17.13-22.68s-17.13,6.66-17.13,22.06,5.05,22.8,17.13,22.8,17.13-6.78,17.13-22.19Z" style="fill: #fff;"/>
    <path d="M639.43,192.25c-6.41-5.42-9.37-14.17-9.37-26.25s2.83-20.95,9.37-26.38c5.79-4.93,13.44-6.53,21.69-6.53s15.78,1.6,21.69,6.53c6.29,5.42,9.25,14.17,9.37,26.25,0,12.08-2.96,20.95-9.37,26.38-5.92,4.93-13.56,6.53-21.69,6.53s-15.78-1.6-21.69-6.53ZM678.26,166.24c0-15.04-5.05-22.68-17.13-22.68s-17.13,6.66-17.13,22.06,5.05,22.8,17.13,22.8,17.13-6.78,17.13-22.19Z" style="fill: #fff;"/>
    <path d="M706.36,197.06v-62.25h11.34l.49,3.94c8.87-3.57,14.42-5.67,22.43-5.67h1.48v11.83h-3.45c-6.04,0-10.85,1.11-18.86,3.94v48.19h-13.44Z" style="fill: #fff;"/>
    <path d="M808.66,197.06l-38.83-62.37h-.25v62.37h-13.19v-84.43h16.39l37.72,61.63h.37v-61.63h13.19v84.43h-15.41Z" style="fill: #fff;"/>
    <path d="M902.09,197.06l-7.52-21.2h-34.64l-7.64,21.2h-14.67l31.06-84.43h17.63l31.18,84.43h-15.41ZM877.43,126.43h-.49l-13.31,37.96h27.12l-13.31-37.96Z" style="fill: #fff;"/>
    <path d="M942.27,197.06l-29.95-84.43h15.41l23.42,69.03h.49l23.54-69.03h14.79l-30.08,84.43h-17.63Z" style="fill: #fff;"/>
    <path d="M1081.79,165.38c-6.9,6.53-14.91,7.89-30.57,7.89h-9.49v23.79h-19.72v-84.43h32.66c12.45,0,21.2,1.23,27.73,7.64,5.05,4.93,7.52,12.82,7.52,22.31,0,10.35-2.96,18.12-8.14,22.8ZM1053.19,127.79h-11.46v30.32h11.59c11.46,0,16.64-4.68,16.64-15.41,0-12.08-6.78-14.91-16.76-14.91Z" style="fill: #fff;"/>
    <path d="M1154.63,197.06l-17.01-29.58h-10.35v29.58h-19.72v-84.43h31.55c11.83,0,21.2,1.23,27.86,7.03,5.42,4.81,7.4,11.46,7.4,20.34,0,8.38-2.22,15.78-8.01,20.46-2.22,1.97-5.05,3.45-8.14,4.31l19.23,32.29h-22.8ZM1138.11,127.79h-10.85v25.27h10.97c11.34,0,16.02-3.82,16.02-12.57,0-9.98-6.04-12.7-16.15-12.7Z" style="fill: #fff;"/>
    <path d="M1260.13,119.77c8.75,7.52,12.57,20.46,12.57,34.88s-3.58,27.73-12.45,35.25c-8.26,6.9-18.49,8.87-30.08,8.87s-21.82-1.85-29.95-8.87c-8.88-7.52-12.7-20.46-12.7-35.01s3.58-27.61,12.45-35.13c8.26-6.9,18.37-8.88,30.08-8.88s21.82,1.85,30.08,8.88ZM1252.61,155.4c0-18.74-6.66-28.47-22.43-28.47s-22.56,8.63-22.56,27.36,6.66,28.47,22.56,28.47,22.43-8.63,22.43-27.36Z" style="fill: #fff;"/>
  </g>
</svg>